name rise43.5482peak65.4966fall89.1036.mot
datacolumns 19
datarows 20
range 11.57161400000000 11.60328000000000
endheader
time	ground_force1_vx	ground_force1_vy	ground_force1_vz	ground_force1_px	ground_force1_py	ground_force1_pz	ground_force2_vx	ground_force2_vy	ground_force2_vz	ground_force2_px	ground_force2_py	ground_force2_pz	ground_torque1_x	ground_torque1_y	ground_torque1_z	ground_torque2_x	ground_torque2_y	ground_torque2_z	
11.57161400000000	-40.06645000000000	786.86516900000004	55.41315200000000	0.10234600000000	0.00000000000000	0.12064300000000	-15.75538700000000	58.77449500000000	10.58822700000000	0.33810600000000	0.00000000000000	-0.07903600000000	0.00000000000000	20.18801400000000	0.00000000000000	0.00000000000000	4.65056900000000	0.00000000000000	
11.57328800000000	-40.59532000000000	784.33041600000001	55.11083900000000	0.10177600000000	0.00000000000000	0.12051500000000	-16.24324400000000	63.68545300000000	11.07307500000000	0.34006000000000	0.00000000000000	-0.07932800000000	0.00000000000000	20.16057900000000	0.00000000000000	0.00000000000000	4.93308500000000	0.00000000000000	
11.57494900000000	-41.14354400000000	781.72149999999999	54.79201500000000	0.10120700000000	0.00000000000000	0.12038400000000	-16.51290000000000	68.32134400000000	11.43437300000000	0.34186300000000	0.00000000000000	-0.07962200000000	0.00000000000000	20.13580400000000	0.00000000000000	0.00000000000000	5.16849500000000	0.00000000000000	
11.57661500000000	-41.71111900000000	779.03854300000000	54.45681900000000	0.10063800000000	0.00000000000000	0.12024800000000	-16.57813000000000	72.69839000000000	11.67827300000000	0.34352900000000	0.00000000000000	-0.07991700000000	0.00000000000000	20.11369100000000	0.00000000000000	0.00000000000000	5.35796500000000	0.00000000000000	
11.57828700000000	-42.29797500000000	776.28156200000001	54.10541300000000	0.10006900000000	0.00000000000000	0.12010800000000	-16.45941800000000	76.85078500000000	11.81508100000000	0.34506800000000	0.00000000000000	-0.08021400000000	0.00000000000000	20.09422500000000	0.00000000000000	0.00000000000000	5.50451400000000	0.00000000000000	
11.57995000000000	-42.90397000000000	773.45046000000002	53.73797300000000	0.09949900000000	0.00000000000000	0.11996500000000	-16.18159400000000	80.82558600000000	11.85789300000000	0.34649100000000	0.00000000000000	-0.08051100000000	0.00000000000000	20.07738100000000	0.00000000000000	0.00000000000000	5.61248500000000	0.00000000000000	
11.58161500000000	-43.52889100000000	770.54502000000002	53.35469300000000	0.09892700000000	0.00000000000000	0.11981800000000	-15.77150200000000	84.67741800000000	11.82123200000000	0.34780600000000	0.00000000000000	-0.08080900000000	0.00000000000000	20.06311800000000	0.00000000000000	0.00000000000000	5.68699900000000	0.00000000000000	
11.58328700000000	-44.17244900000000	767.56490799999995	52.95578700000000	0.09835400000000	0.00000000000000	0.11966700000000	-15.25591100000000	88.46347900000001	11.71981200000000	0.34902100000000	0.00000000000000	-0.08110800000000	0.00000000000000	20.05138200000000	0.00000000000000	0.00000000000000	5.73343500000000	0.00000000000000	
11.58495500000000	-44.83427600000000	764.50966400000004	52.54147900000000	0.09777900000000	0.00000000000000	0.11951200000000	-14.65977100000000	92.23916500000000	11.56748400000000	0.35014300000000	0.00000000000000	-0.08140700000000	0.00000000000000	20.04210500000000	0.00000000000000	0.00000000000000	5.75698800000000	0.00000000000000	
11.58661600000000	-45.51393000000000	761.37870499999997	52.11201200000000	0.09720100000000	0.00000000000000	0.11935400000000	-14.00490200000000	96.05457199999999	11.37643600000000	0.35118000000000	0.00000000000000	-0.08170700000000	0.00000000000000	20.03520400000000	0.00000000000000	0.00000000000000	5.76231700000000	0.00000000000000	
11.58828200000000	-46.21088400000000	758.17132200000003	51.66764200000000	0.09662000000000	0.00000000000000	0.11919200000000	-13.30913900000000	99.95198300000000	11.15665100000000	0.35213700000000	0.00000000000000	-0.08200600000000	0.00000000000000	20.03058200000000	0.00000000000000	0.00000000000000	5.75328800000000	0.00000000000000	
11.58995700000000	-46.92453400000000	754.88668299999995	51.20863800000000	0.09603600000000	0.00000000000000	0.11902600000000	-12.58591800000000	103.96435600000000	10.91562100000000	0.35301900000000	0.00000000000000	-0.08230400000000	0.00000000000000	20.02813000000000	0.00000000000000	0.00000000000000	5.73284000000000	0.00000000000000	
11.59161700000000	-47.65419100000000	751.52382999999998	50.73528300000000	0.09544700000000	0.00000000000000	0.11885700000000	-11.84426000000000	108.11475500000000	10.65830600000000	0.35383200000000	0.00000000000000	-0.08260200000000	0.00000000000000	20.02772100000000	0.00000000000000	0.00000000000000	5.70293200000000	0.00000000000000	
11.59328700000000	-48.39908300000000	748.08168200000000	50.24787000000000	0.09485500000000	0.00000000000000	0.11868500000000	-11.08907400000000	112.41659100000000	10.38727600000000	0.35458000000000	0.00000000000000	-0.08289900000000	0.00000000000000	20.02921700000000	0.00000000000000	0.00000000000000	5.66458500000000	0.00000000000000	
11.59494900000000	-49.15835400000000	744.55903999999998	49.74670500000000	0.09425900000000	0.00000000000000	0.11850900000000	-10.32170400000000	116.87450800000001	10.10300700000000	0.35526600000000	0.00000000000000	-0.08319500000000	0.00000000000000	20.03246200000000	0.00000000000000	0.00000000000000	5.61798300000000	0.00000000000000	
11.59661400000000	-49.93106400000000	740.95458799999994	49.23210400000000	0.09365800000000	0.00000000000000	0.11833100000000	-9.54063400000000	121.48572600000000	9.80428000000000	0.35589600000000	0.00000000000000	-0.08348900000000	0.00000000000000	20.03729000000000	0.00000000000000	0.00000000000000	5.56262200000000	0.00000000000000	
11.59828300000000	-50.71618900000000	737.26689899999997	48.70439200000000	0.09305200000000	0.00000000000000	0.11814900000000	-8.74226900000000	126.24166900000000	9.48862700000000	0.35647200000000	0.00000000000000	-0.08378100000000	0.00000000000000	20.04351900000000	0.00000000000000	0.00000000000000	5.49748500000000	0.00000000000000	
11.59994700000000	-51.51261700000000	733.49443799999995	48.16390400000000	0.09244100000000	0.00000000000000	0.11796400000000	-7.92171700000000	131.12968200000000	9.15278500000000	0.35699800000000	0.00000000000000	-0.08407000000000	0.00000000000000	20.05095100000000	0.00000000000000	0.00000000000000	5.42121900000000	0.00000000000000	
11.60162200000000	-52.31915700000000	729.63557100000003	47.61098300000000	0.09182500000000	0.00000000000000	0.11777700000000	-7.07351900000000	136.13471400000000	8.79313000000000	0.35747600000000	0.00000000000000	-0.08435800000000	0.00000000000000	20.05937700000000	0.00000000000000	0.00000000000000	5.33231500000000	0.00000000000000	
11.60328000000000	-53.13453200000000	725.68856800000003	47.04598100000000	0.09120300000000	0.00000000000000	0.11758700000000	-6.19227800000000	141.24083899999999	8.40605100000000	0.35790800000000	0.00000000000000	-0.08464200000000	0.00000000000000	20.06857300000000	0.00000000000000	0.00000000000000	5.22926200000000	0.00000000000000	
